<svg id="Layer_1" height="512" viewBox="0 0 512 512" width="512" xmlns="http://www.w3.org/2000/svg" data-name="Layer 1"><path d="m485.68 288.4c6.67 34.46-14.76 80.14-77.41 104.78a5.326 5.326 0 0 1 -4.05 0c-62.86-25.24-84.08-70.72-77.41-104.78 4.65-22.84 21.02-37.66 42.24-37.66 11.73 0 24.66 4.81 37.19 13.82 12.74-9.41 25.47-14.22 37.4-14.22 21.22 0 37.59 14.82 42.04 38.06z" fill="#c9767f"/><path d="m185.2 389.82c6.67 34.46-14.76 80.14-77.42 104.78a7.17 7.17 0 0 1 -2.02.4 7.311 7.311 0 0 1 -2.02-.4c-62.86-25.24-84.08-70.72-77.41-104.78 4.65-22.84 21.02-37.66 42.24-37.66 11.72 0 24.66 4.81 37.19 13.82 12.74-9.41 25.47-14.22 37.4-14.22 21.22 0 37.59 14.82 42.04 38.06z" fill="#c9767f"/><path d="m485.84 48.97v81.58l-300.5 83.11v-99.28a31.958 31.958 0 0 1 23.45-30.79l236.5-65.41a31.993 31.993 0 0 1 40.55 30.79z" fill="#4d497c"/><path d="m356.81 288.4c3.516-17.268 13.733-29.945 27.677-35.106a51.009 51.009 0 0 0 -15.437-2.554c-21.22 0-37.59 14.82-42.24 37.66-6.67 34.06 14.55 79.54 77.41 104.78a5.326 5.326 0 0 0 4.05 0q6.87-2.7 13.077-5.731c-52.879-25.973-70.729-67.43-64.537-99.049z" fill="#a8626c"/><path d="m56.33 389.82c3.515-17.267 13.732-29.944 27.675-35.106a51.026 51.026 0 0 0 -15.435-2.554c-21.22 0-37.59 14.82-42.24 37.66-6.67 34.06 14.55 79.54 77.41 104.78a7.311 7.311 0 0 0 2.02.4 7.17 7.17 0 0 0 2.02-.4q6.873-2.7 13.083-5.733c-52.876-25.974-70.725-67.429-64.533-99.047z" fill="#a8626c"/><path d="m215 114.38a32.112 32.112 0 0 1 23.62-30.79l229.127-63.347a31.655 31.655 0 0 0 -22.5-2.063l-236.647 65.41a32.093 32.093 0 0 0 -23.6 30.79v99.28l30-8.3z" fill="#3d3d63"/><g fill="#284268"><path d="m217.213 106.352-9.013 2.428a6 6 0 1 0 3.12 11.587l9.016-2.428a6 6 0 1 0 -3.12-11.587z"/><path d="m241.666 105.982a5.993 5.993 0 0 0 7.354 4.233l97.44-26.235a6 6 0 1 0 -3.119-11.587l-97.441 26.235a6 6 0 0 0 -4.234 7.354z"/><path d="m492 289v-239.181a38.9 38.9 0 0 0 -14.593-30.682 37.772 37.772 0 0 0 -33.645-6.737l-186.362 51.54a6 6 0 1 0 3.2 11.565l186.32-51.544a26.1 26.1 0 0 1 33.08 25.005v76.97l-289 79.937v-91.493a26.212 26.212 0 0 1 19.256-25l10.324-2.817a6 6 0 0 0 4.42-5.793v-.007a6 6 0 0 0 -7.583-5.787l-10.36 2.834a38.243 38.243 0 0 0 -28.057 36.57v247.933a45.92 45.92 0 0 0 -35.845-16.554c-12.226 0-24.805 4.339-37.444 12.907-12.481-8.2-25.247-12.507-37.139-12.507-23.983 0-42.872 16.67-48.124 42.467l-.009.043c-3.848 19.653.948 41.011 13.506 60.141 14.13 21.523 37.492 39.283 67.56 51.357.116.046.233.089.351.128a11.173 11.173 0 0 0 7.812 0c.1-.034.209-.072.311-.112 65.921-25.924 88.236-74.683 81.111-111.483-.028-.144-.062-.284-.09-.427v-169.95l289-79.937v123.14a45.933 45.933 0 0 0 -36.362-17.188c-12.227 0-24.806 4.34-37.445 12.908-12.48-8.2-25.247-12.507-37.139-12.507-23.983 0-42.872 16.67-48.123 42.467 0 .015-.006.029-.008.044-3.85 19.652.947 41.01 13.5 60.139 14.13 21.524 37.491 39.283 67.559 51.358.117.047.236.09.356.13a11.181 11.181 0 0 0 7.8 0c.107-.035.211-.073.316-.114 64.894-25.521 87.53-73.17 81.421-109.763zm-386.224 199.941h-.013c-59.354-23.914-79.715-66.402-73.552-97.941 4.132-20.256 18.063-32.84 36.361-32.84 10.494 0 22.143 4.39 33.686 12.694a6 6 0 0 0 7.072-.046c11.709-8.658 23.089-13.048 33.825-13.048 17.937 0 31.555 12.116 35.845 31.738v.5h.1c.067.321.139.638.2.963 6.183 31.913-14.162 74.563-73.524 97.98zm300.485-101.42h-.016c-59.354-23.918-79.714-66.407-73.551-97.946 4.131-20.256 18.062-32.84 36.36-32.84 10.494 0 22.143 4.39 33.687 12.694a6 6 0 0 0 7.071-.046c11.544-8.536 23.241-13.049 33.826-13.049 18.38 0 32.23 12.719 36.151 33.2 6.177 31.92-14.166 74.566-73.528 97.987z"/></g></svg>